<svg xmlns="http://www.w3.org/2000/svg">
<defs>
<font id="AlltheWaytotheSun" horiz-adv-x="1042" >
  <font-face 
    font-family="All the Way to the Sun"
    font-weight="400"
    font-stretch="normal"
    units-per-em="2048"
    panose-1="2 0 5 0 0 0 0 0 0 0"
    ascent="1638"
    descent="-410"
    x-height="1432"
    cap-height="1427"
    bbox="-93 -224 1752 1624"
    underline-thickness="150"
    underline-position="-442"
    unicode-range="U+001D-007E"
  />
<missing-glyph horiz-adv-x="1506" 
d="M676 1396h32q335 0 564 -300q124 -187 124 -380v-40q0 -314 -288 -548q-194 -128 -388 -128h-32q-335 0 -564 300q-124 187 -124 380v40q0 314 288 548q194 128 388 128zM96 880h4q688 -4 1084 -4h116q-94 264 -292 364q-138 84 -296 84h-32q-268 0 -468 -228
q-88 -113 -116 -216zM664 1252l28 -28l32 28q5 0 32 -32q-6 0 -28 -28v-4q0 -6 28 -28q0 6 28 28h4q6 0 28 -28v-4q0 -6 -28 -28h-4l-32 28l-24 -28q28 -30 28 -36l-32 -28l-32 28l-32 -28l-28 32l28 32q-25 28 -28 28l-32 -28q-5 0 -32 32l32 28l32 -28l28 32q-6 0 -28 28
q0 5 32 32zM692 1220l-28 -32l32 -28q0 2 24 28v4q0 6 -28 28zM692 1156l-28 -32q26 -24 28 -24q6 0 28 28q0 6 -28 28zM320 1008h12l28 -8v-8l-8 -12q-22 4 -32 4q-16 -4 -16 -24q0 -17 20 -24q26 8 28 8l12 -16q-13 -10 -36 -16q-52 9 -52 48q8 48 44 48zM372 1008h20
q8 -1 8 -8v-28h28v36h28v-92h-28v32h-28v-32h-28v92zM476 1008h64v-24h-44v-12h44v-16q0 -8 -8 -8l-8 4l-8 -4l-20 4v-12h40q8 -1 8 -8v-16h-76v84q1 8 8 8zM600 1008q52 -7 52 -44l-8 -32q8 -1 8 -8q0 -6 -16 -16q-10 8 -12 8q-22 -4 -32 -4q-33 0 -44 48q0 48 52 48z
M668 1008h12q8 -1 8 -8v-40q3 -24 12 -24h8q6 0 12 12v52l4 8l8 -4h4l8 4l4 -8v-48q-5 -40 -40 -40h-8q-36 0 -40 48v40q1 8 8 8zM764 1008h8l24 -4q8 4 12 4q8 -4 12 -4q8 4 12 4v-20q0 -8 -8 -8q-7 4 -16 4v-4l-8 4h-12v-12h44v-16q0 -8 -8 -8h-36v-12h12q4 0 4 4l8 -4h8
q4 0 4 4q8 -4 12 -4v-20h-20l-24 -4q-7 4 -20 4v-4q-8 4 -12 4v72zM852 1008l28 -4v4q48 -7 48 -32q-3 -28 -20 -28l24 -32l-8 -4h-16q-3 0 -32 32h-4v-16l4 -8l-8 -4h-24v4q0 8 4 8l-4 28l4 40h-4q4 12 8 12zM940 1004h72v-16q0 -8 -8 -8h-36v-8h40v-24h-40v-12h44v-16

<glyph glyph-name=".notdef" horiz-adv-x="1506" 
d="M676 1396h32q335 0 564 -300q124 -187 124 -380v-40q0 -314 -288 -548q-194 -128 -388 -128h-32q-335 0 -564 300q-124 187 -124 380v40q0 314 288 548q194 128 388 128zM96 880h4q688 -4 1084 -4h116q-94 264 -292 364q-138 84 -296 84h-32q-268 0 -468 -228
q-88 -113 -116 -216zM664 1252l28 -28l32 28q5 0 32 -32q-6 0 -28 -28v-4q0 -6 28 -28q0 6 28 28h4q6 0 28 -28v-4q0 -6 -28 -28h-4l-32 28l-24 -28q28 -30 28 -36l-32 -28l-32 28l-32 -28l-28 32l28 32q-25 28 -28 28l-32 -28q-5 0 -32 32l32 28l32 -28l28 32q-6 0 -28 28
q0 5 32 32zM692 1220l-28 -32l32 -28q0 2 24 28v4q0 6 -28 28zM692 1156l-28 -32q26 -24 28 -24q6 0 28 28q0 6 -28 28zM320 1008h12l28 -8v-8l-8 -12q-22 4 -32 4q-16 -4 -16 -24q0 -17 20 -24q26 8 28 8l12 -16q-13 -10 -36 -16q-52 9 -52 48q8 48 44 48zM372 1008h20
q8 -1 8 -8v-28h28v36h28v-92h-28v32h-28v-32h-28v92zM476 1008h64v-24h-44v-12h44v-16q0 -8 -8 -8l-8 4l-8 -4l-20 4v-12h40q8 -1 8 -8v-16h-76v84q1 8 8 8zM600 1008q52 -7 52 -44l-8 -32q8 -1 8 -8q0 -6 -16 -16q-10 8 -12 8q-22 -4 -32 -4q-33 0 -44 48q0 48 52 48z
M668 1008h12q8 -1 8 -8v-40q3 -24 12 -24h8q6 0 12 12v52l4 8l8 -4h4l8 4l4 -8v-48q-5 -40 -40 -40h-8q-36 0 -40 48v40q1 8 8 8zM764 1008h8l24 -4q8 4 12 4q8 -4 12 -4q8 4 12 4v-20q0 -8 -8 -8q-7 4 -16 4v-4l-8 4h-12v-12h44v-16q0 -8 -8 -8h-36v-12h12q4 0 4 4l8 -4h8
q4 0 4 4q8 -4 12 -4v-20h-20l-24 -4q-7 4 -20 4v-4q-8 4 -12 4v72zM852 1008l28 -4v4q48 -7 48 -32q-3 -28 -20 -28l24 -32l-8 -4h-16q-3 0 -32 32h-4v-16l4 -8l-8 -4h-24v4q0 8 4 8l-4 28l4 40h-4q4 12 8 12zM940 1004h72v-16q0 -8 -8 -8h-36v-8h40v-24h-40v-12h44v-16
q0 -8 -8 -8h-56q-8 0 -8 8v84zM1024 1004h48q36 0 40 -48q0 -42 -64 -44h-16q-8 0 -8 8v84zM576 956q6 -20 28 -20q20 6 20 28q-8 18 -16 20h-16q-16 -6 -16 -28zM872 984v-20h20q8 0 8 8v4q0 8 -8 8h-20zM1052 980v-44h4q22 0 28 16v16q0 6 -12 12h-20zM208 680v-8
q13 -68 64 -68h40q20 10 20 32v16q-16 0 -16 20q0 40 76 40q0 5 16 8v-4q-75 -248 -96 -252h-8q-9 0 -12 20q0 7 20 44q-20 36 -52 36h-12q-64 -9 -64 -64v-8q0 -58 72 -84q21 -4 40 -4h16q125 0 164 172q24 53 84 228q-19 12 -52 12h-24q-31 0 -60 -36q-51 -22 -156 -36
q-60 -21 -60 -64zM796 460l-4 8v12q0 19 32 136q-10 40 -44 40h-28q-17 0 -64 -20v8l4 8q-16 8 -44 8h-40q-35 0 -48 -44q-64 -198 -64 -208q24 -12 68 -12q60 0 60 60q41 132 56 132q12 0 12 4q16 -6 16 -12q-36 -93 -36 -124v-8q0 -39 56 -48q40 0 108 36l-8 -24
q16 -16 56 -16q68 0 68 32q22 160 76 160h12q8 -1 8 -8v-4q0 -27 -52 -52l-4 -20q0 -104 84 -104q87 0 144 108l-16 12h-8q-35 -60 -80 -60h-8q-24 10 -24 36v16l56 36q20 37 20 56v8q0 41 -60 48q-16 0 -84 -24q0 4 -4 4q60 154 60 160q-19 12 -60 12h-36q-30 0 -40 -68
q-11 -12 -80 -236q-45 -48 -60 -48zM208 312v-4q203 -236 476 -236h32q251 0 448 204q24 28 24 32q-502 4 -748 4h-232zM516 244h40v-8h-32v-20h32v-8h-32v-16h28q8 -1 8 -8h-44v60zM580 244h20q6 0 12 -12h-4l-24 4q-8 -1 -8 -8v-8q40 -4 40 -20q-6 -20 -28 -20
q-24 8 -24 16l8 4q0 -9 20 -12l16 8q0 12 -40 20v16q0 6 12 12zM616 244h48v-8h-20v-52h-8v52h-20v8zM716 244q12 0 24 -16q0 -19 -40 -24l-4 -8q1 -8 8 -8h32v-8h-28l-20 4v4q0 28 28 28h12q0 4 4 12l-12 8h-12l-16 -12v8q4 12 24 12zM772 244h4q6 0 16 -16v-32
q-6 -16 -28 -16q-20 6 -20 28v8q0 28 28 28zM820 244v-56h12q0 -8 -8 -8h-20v8h8v44h-8v8q9 0 16 4zM840 244h36q8 -1 8 -8h-36v-16h24q8 -2 16 -20q-6 -20 -28 -20q-20 3 -20 12v8l16 -12h12q6 0 12 12q0 6 -12 12h-28v32zM752 224v-24q0 -6 12 -12h8q6 0 12 12v24
q0 6 -12 12h-8q-6 0 -12 -12z" />
    <glyph glyph-name=".null" horiz-adv-x="0" 
 />
    <glyph glyph-name=".null" horiz-adv-x="0" 
 />
    <glyph glyph-name="nonmarkingreturn" horiz-adv-x="508" 
 />
    <glyph glyph-name="space" unicode=" " horiz-adv-x="355" 
 />
    <glyph glyph-name="space" unicode="&#xa0;" horiz-adv-x="355" 
 />
    <glyph glyph-name="exclam" unicode="!" horiz-adv-x="413" 
d="M328 8l-325 -16l5 335l315 -3zM8 435v997l293 10l6 -997z" />
    <glyph glyph-name="quotedbl" unicode="&#x22;" horiz-adv-x="803" 
d="M308 908l-305 -16l5 535l315 -3zM708 908l-305 -16l5 535l315 -3z" />
    <glyph glyph-name="numbersign" unicode="#" horiz-adv-x="1048" 
d="M424 1167l103 -1l1 261l315 -3l1 -262l104 -1l-2 -313l-101 1l1 -287l102 -1l-2 -313l-99 1l1 -241l-325 -16l1 260l-97 1l1 -245l-325 -16l1 264l-107 1l5 315l103 -1l1 285l-109 1l5 315l105 -1l1 256l315 -3zM526 852l-101 1l1 -286l99 -1z" />
    <glyph glyph-name="dollar" unicode="$" horiz-adv-x="994" 
d="M304 1437l-3 187h304l-4 -179q148 -29 307 -129l-197 -293q-165 128 -282.5 120t-116 -81.5t288 -249.5t292 -391t-103.5 -348q-73 -89 -194 -114l-4 -183l-289 8l-3 188q-150 33 -312 116l123 346q254 -164 363.5 -164.5t109.5 80.5t-296 258.5t-297.5 410.5t136.5 335
q78 57 178 83z" />
    <glyph glyph-name="percent" unicode="%" horiz-adv-x="904" 
d="M916 1432l-662 -1445l-347 16l659 1429h350zM-3 1422l304 6v-320l-288 -6zM499 319l304 6v-320l-288 -6z" />
    <glyph glyph-name="ampersand" unicode="&#x26;" horiz-adv-x="1122" 
d="M601 541h-147q-150 2 -146 -115q0 -122 150 -123q104 -1 124 25q16 21 19 213zM912 541q8 -160 6 -180q26 -53 109 -61l-4 -331q-171 8 -271 82q-106 -71 -295 -78q-247 4 -357.5 133t-107.5 319q3 164 82 283q-85 120 -82 287q3 190 109.5 320t353.5 126
q275 -8 373 -127q105 -128 107 -305l-310 -37q0 135 -171 139q-150 2 -146 -115q0 -122 150 -123l580 -1l-6 -331h-120z" />
    <glyph glyph-name="quotesingle" unicode="'" horiz-adv-x="429" 
d="M308 908l-305 -16l5 535l315 -3z" />
    <glyph glyph-name="parenleft" unicode="(" horiz-adv-x="563" 
d="M469 -147q-246 5 -355 133q-111 129 -112 329l6 790q1 200 108 330q103 127 341 126l2 -330q-141 -3 -141 -127l4 -788q0 -129 144 -133z" />
    <glyph glyph-name="parenright" unicode=")" horiz-adv-x="563" 
d="M2 1561q246 -5 355 -133q111 -129 112 -329l-6 -790q-1 -200 -108 -330q-103 -127 -351 -126l-2 330q151 3 151 127l-4 788q0 129 -144 133z" />
    <glyph glyph-name="asterisk" unicode="*" horiz-adv-x="904" 
d="M556 1292l258 122v-313l-79 -38l79 -38v-313l-264 125l-2 -200h-299l-2 191l-242 -116l-16 311l84 40l-84 40l16 311l236 -113l-2 147h319z" />
    <glyph glyph-name="plus" unicode="+" horiz-adv-x="851" 
d="M218 554l-211 3l5 315l210 -3l3 211l315 -5l-3 -211l211 -3l-2 -313l-214 3l-3 -212l-314 2z" />
    <glyph glyph-name="comma" unicode="," horiz-adv-x="429" 
d="M308 -192l-305 -16l5 535l315 -3z" />
    <glyph glyph-name="hyphen" unicode="-" horiz-adv-x="851" 
d="M7 557l5 315l736 -11l-2 -313z" />
    <glyph glyph-name="hyphen" unicode="&#xad;" horiz-adv-x="851" 
d="M7 557l5 315l736 -11l-2 -313z" />
    <glyph glyph-name="period" unicode="." horiz-adv-x="429" 
d="M328 8l-325 -16l5 335l315 -3z" />
    <glyph glyph-name="slash" unicode="/" horiz-adv-x="904" 
d="M916 1432l-662 -1445l-347 16l659 1429h350z" />
    <glyph glyph-name="zero" unicode="0" 
d="M933 409q-1 -200 -107.5 -330t-354 -126t-358 133t-111.5 329l6 590q1 200 107.5 330t354 126t358 -133t111.5 -329zM322 416q0 -132 150.5 -133.5t150.5 127.5l-4 588q0 132 -150.5 133t-150.5 -127z" />
    <glyph glyph-name="one" unicode="1" horiz-adv-x="595" 
d="M498 8l-325 -16l5 1135h-191l5 315l486 -11z" />
    <glyph glyph-name="two" unicode="2" horiz-adv-x="994" 
d="M895 304l13 -306l-905 16q5 522 291.5 748t288 299.5t-116 81.5t-282.5 -120l-197 293q229 144 436.5 141.5t345.5 -104t136.5 -334.5t-262.5 -410.5t-261 -299.5z" />
    <glyph glyph-name="three" unicode="3" horiz-adv-x="1026" 
d="M325 962l-320 38q6 188 111 311q104 121 354 130q247 -4 357.5 -133t107.5 -319q-3 -164 -82 -283q85 -120 82 -287q-3 -190 -109.5 -320t-353.5 -126q-275 8 -373 127q-105 128 -107 305l310 37q0 -135 171 -139q150 -2 146 115q0 122 -150 123l-150 1l6 331h148
q150 -2 146 115q0 122 -150 123q-144 2 -144 -149z" />
    <glyph glyph-name="four" unicode="4" horiz-adv-x="1048" 
d="M3 352l5 1075l315 -3l4 -756l198 -2l3 761l315 -3l3 -762l102 -1l-2 -313l-99 1l1 -341l-325 -16l1 360h-521z" />
    <glyph glyph-name="five" unicode="5" horiz-adv-x="1032" 
d="M338 950q57 10 124 11q247 4 353.5 -126t107.5 -330l6 -90q-1 -200 -111.5 -329t-358 -133t-353.5 126q-106 128 -108 265l310 37v-31q0 -69 150.5 -67.5t150.5 133.5l4 88q0 128 -150.5 127t-150.5 -73v-19l-320 38l71 855l820 -1l5 -330h-535z" />
    <glyph glyph-name="six" unicode="6" 
d="M473 596q-151 1 -151 -158q0 -154 150.5 -155.5t146.5 155.5q1 156 -146 158zM826 79q-107 -130 -354.5 -126t-358 133t-111.5 329l6 590q1 200 107.5 330t354 126t358.5 -133q105 -123 111 -281l-320 -38v19q0 102 -150.5 103t-150.5 -127l1 -92q69 14 155 13
q247 -4 357.5 -133t111.5 -329q-2 -256 -117 -384z" />
    <glyph glyph-name="seven" unicode="7" horiz-adv-x="904" 
d="M419 1113l-416 -8l-6 321l919 6l-658 -1438l-351 9z" />
    <glyph glyph-name="eight" unicode="8" horiz-adv-x="1026" 
d="M473 873q150 -2 146 115q0 122 -150 123q-144 2 -144 -149q-10 -72 148 -89zM473 303q150 -2 146 115q0 112 -126 118q-174 -1 -174 -106q-9 -123 154 -127zM5 1000q6 188 111 311q104 121 354 130q247 -4 357.5 -133t107.5 -319q-3 -164 -82 -283q85 -120 82 -287
q-3 -190 -109.5 -320t-353.5 -126q-275 8 -373 127q-105 128 -107 330q1 157 82 271q-78 118 -69 299z" />
    <glyph glyph-name="nine" unicode="9" 
d="M473 819q150 -2 150 157q0 154 -150.5 155.5t-146.5 -155.5q-1 -156 147 -157zM119 1335q107 130 354.5 126t358 -133t111.5 -329l-6 -590q-1 -200 -107.5 -330t-354 -126t-358.5 133q-105 123 -111 281l320 38v-19q0 -102 150.5 -103t150.5 127l-1 92q-69 -14 -154 -13
q-248 4 -358.5 133t-111.5 329q2 256 117 384z" />
    <glyph glyph-name="colon" unicode=":" horiz-adv-x="429" 
d="M328 8l-325 -16l5 335l315 -3zM328 705l-325 -16l5 335l315 -3z" />
    <glyph glyph-name="semicolon" unicode=";" horiz-adv-x="429" 
d="M308 -192l-305 -16l5 535l315 -3zM328 705l-325 -16l5 335l315 -3z" />
    <glyph glyph-name="semicolon" unicode="&#x37e;" horiz-adv-x="429" 
d="M308 -192l-305 -16l5 535l315 -3zM328 705l-325 -16l5 335l315 -3z" />
    <glyph glyph-name="less" unicode="&#x3c;" horiz-adv-x="824" 
d="M4 838l717 328v-350l-335 -154l335 -155v-350l-717 328v353z" />
    <glyph glyph-name="equal" unicode="=" horiz-adv-x="851" 
d="M7 757l5 315l736 -11l-2 -313zM7 357l5 315l736 -11l-2 -313z" />
    <glyph glyph-name="greater" unicode="&#x3e;" horiz-adv-x="824" 
d="M721 485l-717 -328v350l335 155l-335 154v350l717 -328v-353z" />
    <glyph glyph-name="question" unicode="?" horiz-adv-x="1026" 
d="M7 1104l1 317l-16 16l478 4q247 -4 357.5 -133t107.5 -329t-109.5 -330t-353.5 -126h-145v-108l-323 8v99h-1l1 2l2 333l467 -4q150 -2 146 125q0 132 -150 133zM327 317l1 -309l-325 -16l1 325h323z" />
    <glyph glyph-name="at" unicode="@" 
d="M470 -47q-248 -4 -354.5 126t-107.5 330l-6 590q1 200 111.5 329t358 133t354.5 -126q105 -128 107 -325l1 -601l-505 -2l20 554l168 6l6 37q0 129 -150.5 127.5t-150.5 -133.5l-4 -588q0 -128 158 -127l422 -3l-5 -331z" />
    <glyph glyph-name="A" unicode="A" horiz-adv-x="1122" 
d="M338 192l-37 -201l-330 6l330 1431h411l320 -1420l-347 -17l-39 204zM587 495l-99 515l-94 -513z" />
    <glyph glyph-name="B" unicode="B" horiz-adv-x="1026" 
d="M326 541l1 -238h146q150 -2 146 115q0 122 -150 123h-143zM325 873h148q150 -2 146 115q0 122 -150 123h-145zM2 1437l468 4q247 -4 357.5 -133t107.5 -319q-3 -164 -82 -283q85 -120 82 -287q-3 -190 -109.5 -320t-353.5 -126l-469 -1z" />
    <glyph glyph-name="C" unicode="C" 
d="M933 404q-2 -197 -107 -325q-107 -130 -354.5 -126t-358 133t-111.5 329l6 590q1 200 107.5 330t354 126t358.5 -133q105 -123 111 -311l-320 -38v19q0 132 -150.5 133t-150.5 -127l4 -588q0 -132 150.5 -133.5t150.5 127.5v31z" />
    <glyph glyph-name="D" unicode="D" 
d="M319 1111l6 -788h148q150 -2 150 127l-4 528q0 132 -150 133h-150zM470 1441q247 -4 357.5 -133t111.5 -329l-6 -530q-1 -200 -107.5 -330t-353.5 -126l-469 -1l-11 1445z" />
    <glyph glyph-name="E" unicode="E" horiz-adv-x="941" 
d="M848 1421l-2 -313l-522 6l1 -247l423 -6l-2 -313l-420 5l1 -235l521 -7l-2 -313l-843 -6l5 1435z" />
    <glyph glyph-name="F" unicode="F" horiz-adv-x="941" 
d="M848 1421l-2 -313l-522 6l1 -247l423 -6l-2 -313l-420 5l2 -555l-325 -6l5 1435z" />
    <glyph glyph-name="G" unicode="G" 
d="M933 404q-2 -197 -107 -325q-107 -130 -354.5 -126t-358 133t-111.5 329l6 590q1 200 107.5 330t354 126t358.5 -133q105 -123 111 -281l-320 -38v19q0 102 -150.5 103t-150.5 -127l4 -588q0 -132 150.5 -133.5t150.5 127.5l-6 137l-168 6l-20 314l505 -2z" />
    <glyph glyph-name="H" unicode="H" horiz-adv-x="1048" 
d="M326 554l2 -546l-325 -16l5 1435l315 -3l2 -556l301 -3l2 562l315 -3l5 -1416l-325 -16l2 559z" />
    <glyph glyph-name="I" unicode="I" horiz-adv-x="429" 
d="M328 8l-325 -16l5 1435l315 -3z" />
    <glyph glyph-name="J" unicode="J" horiz-adv-x="898" 
d="M793 399q-1 -200 -104 -326q-110 -134 -330.5 -123.5t-371.5 138.5l103 306q174 -124 283.5 -124.5t109.5 80.5q0 17 -1 1081l316 4z" />
    <glyph glyph-name="K" unicode="K" horiz-adv-x="1026" 
d="M327 224l1 -216l-325 -16l5 1435l315 -3l2 -463l254 470l351 5l-295 -594l305 -839l-336 -6l-167 447z" />
    <glyph glyph-name="L" unicode="L" horiz-adv-x="893" 
d="M-13 1426l325 16l-5 -1135h491l-5 -315l-786 11z" />
    <glyph glyph-name="M" unicode="M" horiz-adv-x="1250" 
d="M326 640l2 -632l-325 -16l5 1435l326 -1l246 -728l256 736l315 -7l5 -1435l-325 16l2 632l-125 -437h-257z" />
    <glyph glyph-name="N" unicode="N" horiz-adv-x="1048" 
d="M326 640l2 -632l-325 -16l5 1435l326 -1l292 -687l2 688l315 -3l5 -1426l-347 -5z" />
    <glyph glyph-name="O" unicode="O" 
d="M933 409q-1 -200 -107.5 -330t-354 -126t-358 133t-111.5 329l6 590q1 200 107.5 330t354 126t358 -133t111.5 -329zM322 416q0 -132 150.5 -133.5t150.5 127.5l-4 588q0 132 -150.5 133t-150.5 -127z" />
    <glyph glyph-name="P" unicode="P" horiz-adv-x="1026" 
d="M2 1437l468 4q247 -4 357.5 -133t107.5 -329t-109.5 -330t-353.5 -126h-146l2 -515l-325 -16zM325 853h148q150 -2 146 125q0 132 -150 133h-145z" />
    <glyph glyph-name="Q" unicode="Q" 
d="M322 416q0 -132 150.5 -133.5t150.5 127.5l-4 588q0 132 -150.5 133t-150.5 -127zM582 -41q-51 -7 -110 -6q-248 4 -358.5 133t-111.5 329l6 590q1 200 107.5 330t354 126t358 -133t111.5 -329l-6 -590q-1 -163 -72 -280l96 -100l-208 -245z" />
    <glyph glyph-name="R" unicode="R" horiz-adv-x="1026" 
d="M2 1437l468 4q247 -4 357.5 -133t107.5 -329t-109 -330q-44 -53 -111 -84l205 -562l-336 -6l-197 526h-61l2 -515l-325 -16zM324 1111l1 -258h148q150 -2 146 125q0 132 -150 133h-145z" />
    <glyph glyph-name="S" unicode="S" horiz-adv-x="991" 
d="M97 394q264 -124 373.5 -124.5t109.5 80.5t-296 258.5t-297.5 410.5t136.5 334.5t345.5 104t436.5 -141.5l-177 -273q-185 108 -302.5 100t-116 -81.5t288 -249.5t292 -391t-104 -348.5t-330 -123t-471.5 138.5z" />
    <glyph glyph-name="T" unicode="T" horiz-adv-x="978" 
d="M598 8l-325 -16l5 1135h-281l5 315l876 -11l-2 -313l-283 6z" />
    <glyph glyph-name="U" unicode="U" 
d="M623 410l-1 1021l316 4l-5 -1026q-1 -200 -107.5 -330t-354 -126t-358 133t-111.5 329l5 1026l316 -4l-1 -1021q0 -132 150.5 -133.5t150.5 127.5z" />
    <glyph glyph-name="V" unicode="V" horiz-adv-x="1096" 
d="M1032 1422l-330 -1431h-411l-320 1430l347 17l197 -1029l187 1019z" />
    <glyph glyph-name="W" unicode="W" horiz-adv-x="1821" 
d="M702 1428h336l187 -919l197 919l330 4l-330 -1441h-411l-153 678l-156 -678h-411l-320 1440l347 -3l187 -919z" />
    <glyph glyph-name="X" unicode="X" horiz-adv-x="904" 
d="M235 715l-328 717h350l155 -335l154 335h350l-328 -717l328 -712l-347 -16l-157 344l-158 -344l-347 16z" />
    <glyph glyph-name="Y" unicode="Y" horiz-adv-x="907" 
d="M559 498l-9 -501h-304l3 557l-339 878h350l155 -448l154 448h350z" />
    <glyph glyph-name="Z" unicode="Z" horiz-adv-x="904" 
d="M419 1113l-416 -8l-6 321l919 6l-519 -1133l416 8l6 -321l-912 17z" />
    <glyph glyph-name="bracketleft" unicode="[" horiz-adv-x="563" 
d="M469 -147l-467 12l6 1690l449 6l2 -330l-141 3l4 -1058l144 7z" />
    <glyph glyph-name="backslash" unicode="\" horiz-adv-x="904" 
d="M-93 1432h350l659 -1429l-347 -16z" />
    <glyph glyph-name="bracketright" unicode="]" horiz-adv-x="563" 
d="M2 1561l467 -12l-6 -1690l-449 -6l-2 330l141 -3l-4 1058l-144 -7z" />
    <glyph glyph-name="asciicircum" unicode="^" horiz-adv-x="429" 
d="M308 908l-305 -16l5 535l315 -3z" />
    <glyph glyph-name="underscore" unicode="_" horiz-adv-x="941" 
d="M7 7l5 315l836 -11l-2 -313z" />
    <glyph glyph-name="grave" unicode="`" horiz-adv-x="429" 
d="M308 908l-305 -16l5 535l315 -3z" />
    <glyph glyph-name="a" unicode="a" horiz-adv-x="1122" 
d="M338 192l-37 -201l-330 6l330 1431h411l320 -1420l-347 -17l-39 204zM587 495l-99 515l-94 -513z" />
    <glyph glyph-name="b" unicode="b" horiz-adv-x="1026" 
d="M326 541l1 -238h146q150 -2 146 115q0 122 -150 123h-143zM325 873h148q150 -2 146 115q0 122 -150 123h-145zM2 1437l468 4q247 -4 357.5 -133t107.5 -319q-3 -164 -82 -283q85 -120 82 -287q-3 -190 -109.5 -320t-353.5 -126l-469 -1z" />
    <glyph glyph-name="c" unicode="c" 
d="M933 404q-2 -197 -107 -325q-107 -130 -354.5 -126t-358 133t-111.5 329l6 590q1 200 107.5 330t354 126t358.5 -133q105 -123 111 -311l-320 -38v19q0 132 -150.5 133t-150.5 -127l4 -588q0 -132 150.5 -133.5t150.5 127.5v31z" />
    <glyph glyph-name="d" unicode="d" 
d="M319 1111l6 -788h148q150 -2 150 127l-4 528q0 132 -150 133h-150zM470 1441q247 -4 357.5 -133t111.5 -329l-6 -530q-1 -200 -107.5 -330t-353.5 -126l-469 -1l-11 1445z" />
    <glyph glyph-name="e" unicode="e" horiz-adv-x="941" 
d="M848 1421l-2 -313l-522 6l1 -247l423 -6l-2 -313l-420 5l1 -235l521 -7l-2 -313l-843 -6l5 1435z" />
    <glyph glyph-name="f" unicode="f" horiz-adv-x="941" 
d="M848 1421l-2 -313l-522 6l1 -247l423 -6l-2 -313l-420 5l2 -555l-325 -6l5 1435z" />
    <glyph glyph-name="g" unicode="g" 
d="M933 404q-2 -197 -107 -325q-107 -130 -354.5 -126t-358 133t-111.5 329l6 590q1 200 107.5 330t354 126t358.5 -133q105 -123 111 -281l-320 -38v19q0 102 -150.5 103t-150.5 -127l4 -588q0 -132 150.5 -133.5t150.5 127.5l-6 137l-168 6l-20 314l505 -2z" />
    <glyph glyph-name="h" unicode="h" horiz-adv-x="1048" 
d="M326 554l2 -546l-325 -16l5 1435l315 -3l2 -556l301 -3l2 562l315 -3l5 -1416l-325 -16l2 559z" />
    <glyph glyph-name="i" unicode="i" horiz-adv-x="429" 
d="M328 8l-325 -16l5 1435l315 -3z" />
    <glyph glyph-name="j" unicode="j" horiz-adv-x="898" 
d="M793 399q-1 -200 -104 -326q-110 -134 -330.5 -123.5t-371.5 138.5l103 306q174 -124 283.5 -124.5t109.5 80.5q0 17 -1 1081l316 4z" />
    <glyph glyph-name="k" unicode="k" horiz-adv-x="1026" 
d="M327 224l1 -216l-325 -16l5 1435l315 -3l2 -463l254 470l351 5l-295 -594l305 -839l-336 -6l-167 447z" />
    <glyph glyph-name="l" unicode="l" horiz-adv-x="893" 
d="M-13 1426l325 16l-5 -1135h491l-5 -315l-786 11z" />
    <glyph glyph-name="m" unicode="m" horiz-adv-x="1250" 
d="M326 640l2 -632l-325 -16l5 1435l326 -1l246 -728l256 736l315 -7l5 -1435l-325 16l2 632l-125 -437h-257z" />
    <glyph glyph-name="n" unicode="n" horiz-adv-x="1048" 
d="M326 640l2 -632l-325 -16l5 1435l326 -1l292 -687l2 688l315 -3l5 -1426l-347 -5z" />
    <glyph glyph-name="o" unicode="o" 
d="M933 409q-1 -200 -107.5 -330t-354 -126t-358 133t-111.5 329l6 590q1 200 107.5 330t354 126t358 -133t111.5 -329zM322 416q0 -132 150.5 -133.5t150.5 127.5l-4 588q0 132 -150.5 133t-150.5 -127z" />
    <glyph glyph-name="p" unicode="p" horiz-adv-x="1026" 
d="M2 1437l468 4q247 -4 357.5 -133t107.5 -329t-109.5 -330t-353.5 -126h-146l2 -515l-325 -16zM325 853h148q150 -2 146 125q0 132 -150 133h-145z" />
    <glyph glyph-name="q" unicode="q" 
d="M322 416q0 -132 150.5 -133.5t150.5 127.5l-4 588q0 132 -150.5 133t-150.5 -127zM582 -41q-51 -7 -110 -6q-248 4 -358.5 133t-111.5 329l6 590q1 200 107.5 330t354 126t358 -133t111.5 -329l-6 -590q-1 -163 -72 -280l96 -100l-208 -245z" />
    <glyph glyph-name="r" unicode="r" horiz-adv-x="1026" 
d="M2 1437l468 4q247 -4 357.5 -133t107.5 -329t-109 -330q-44 -53 -111 -84l205 -562l-336 -6l-197 526h-61l2 -515l-325 -16zM324 1111l1 -258h148q150 -2 146 125q0 132 -150 133h-145z" />
    <glyph glyph-name="s" unicode="s" horiz-adv-x="991" 
d="M97 394q264 -124 373.5 -124.5t109.5 80.5t-296 258.5t-297.5 410.5t136.5 334.5t345.5 104t436.5 -141.5l-177 -273q-185 108 -302.5 100t-116 -81.5t288 -249.5t292 -391t-104 -348.5t-330 -123t-471.5 138.5z" />
    <glyph glyph-name="t" unicode="t" horiz-adv-x="978" 
d="M598 8l-325 -16l5 1135h-281l5 315l876 -11l-2 -313l-283 6z" />
    <glyph glyph-name="u" unicode="u" 
d="M623 410l-1 1021l316 4l-5 -1026q-1 -200 -107.5 -330t-354 -126t-358 133t-111.5 329l5 1026l316 -4l-1 -1021q0 -132 150.5 -133.5t150.5 127.5z" />
    <glyph glyph-name="v" unicode="v" horiz-adv-x="1096" 
d="M1032 1422l-330 -1431h-411l-320 1430l347 17l197 -1029l187 1019z" />
    <glyph glyph-name="w" unicode="w" horiz-adv-x="1821" 
d="M702 1428h336l187 -919l197 919l330 4l-330 -1441h-411l-153 678l-156 -678h-411l-320 1440l347 -3l187 -919z" />
    <glyph glyph-name="x" unicode="x" horiz-adv-x="904" 
d="M235 715l-328 717h350l155 -335l154 335h350l-328 -717l328 -712l-347 -16l-157 344l-158 -344l-347 16z" />
    <glyph glyph-name="y" unicode="y" horiz-adv-x="907" 
d="M559 498l-9 -501h-304l3 557l-339 878h350l155 -448l154 448h350z" />
    <glyph glyph-name="z" unicode="z" horiz-adv-x="904" 
d="M419 1113l-416 -8l-6 321l919 6l-519 -1133l416 8l6 -321l-912 17z" />
    <glyph glyph-name="braceleft" unicode="{" horiz-adv-x="698" 
d="M145 1105q1 200 108 330q103 127 341 126l2 -330q-141 -3 -141 -127q-5 -235 -83 -355q95 -124 87 -393q0 -169 144 -173l3 -330q-246 5 -355 133q-111 129 -112 369q9 213 -135 217v12h-2l-1 346q140 -13 144 175z" />
    <glyph glyph-name="bar" unicode="|" horiz-adv-x="429" 
d="M328 8l-325 -16l5 1435l315 -3z" />
    <glyph glyph-name="braceright" unicode="}" horiz-adv-x="698" 
d="M462 309q-1 -200 -108 -330q-103 -127 -341 -126l-2 330q141 3 141 127q5 235 83 355q-95 124 -87 393q0 169 -144 173l-3 330q246 -5 355 -133q111 -129 112 -369q-9 -213 135 -217v-12h2l1 -346q-140 13 -144 -175z" />
    <glyph glyph-name="asciitilde" unicode="~" horiz-adv-x="851" 
d="M7 557l5 315l736 -11l-2 -313z" />
    </font>
</defs>
</svg>
